HIERARCHY
ROOT Pelvis
{
	OFFSET 0.000000 0.000000 0.000000
	CHANNELS 6 Xposition Yposition Zposition Xrotation Yrotation Zrotation
	JOINT LeftUpLeg_virtual
	{
		OFFSET 0.000000 0.000000 0.000000
		CHANNELS 3 Xrotation Yrotation Zrotation
		JOINT LeftUpLeg
		{
			OFFSET 18.735201 -5.666702 -4.541200
			CHANNELS 3 Xrotation Yrotation Zrotation
			JOINT LeftLeg
			{
				OFFSET -0.021200 -31.938179 0.493100
				CHANNELS 3 Xrotation Yrotation Zrotation
				JOINT LeftFoot
				{
					OFFSET 0.021200 -31.938179 -4.336299
					CHANNELS 3 Xrotation Yrotation Zrotation
					JOINT LeftToeBase
					{
						OFFSET 0.943001 -26.722000 15.023500
						CHANNELS 3 Xrotation Yrotation Zrotation
						End Site
						{
							OFFSET 0 0 0
						}
					}
				}
			}
		}
	}
	JOINT RightUpLeg_virtual
	{
		OFFSET 0.000000 0.000000 0.000000
		CHANNELS 3 Xrotation Yrotation Zrotation
		JOINT RightUpLeg
		{
			OFFSET -18.735201 -5.666702 -4.541200
			CHANNELS 3 Xrotation Yrotation Zrotation
			JOINT RightLeg
			{
				OFFSET 0.018946 -31.938133 0.493100
				CHANNELS 3 Xrotation Yrotation Zrotation
				JOINT RightFoot
				{
					OFFSET -0.018946 -31.938126 -4.336299
					CHANNELS 3 Xrotation Yrotation Zrotation
					JOINT RightToeBase
					{
						OFFSET -0.943001 -26.722004 15.023500
						CHANNELS 3 Xrotation Yrotation Zrotation
						End Site
						{
							OFFSET 0 0 0
						}
					}
				}
			}
		}
	}
	JOINT Hips_virtual
	{
		OFFSET 0.000000 0.000000 0.000000
		CHANNELS 3 Xrotation Yrotation Zrotation
		JOINT Hips
		{
			OFFSET -0.000000 -0.000000 -0.000000
			CHANNELS 3 Xrotation Yrotation Zrotation
			JOINT Spine
			{
				OFFSET 0.000000 10.199997 -0.299500
				CHANNELS 3 Xrotation Yrotation Zrotation
				JOINT Spine1
				{
					OFFSET 0.000000 11.900002 -1.516600
					CHANNELS 3 Xrotation Yrotation Zrotation
					JOINT Spine2
					{
						OFFSET 0.000000 13.600006 -2.842500
						CHANNELS 3 Xrotation Yrotation Zrotation
						JOINT Neck_virtual
						{
							OFFSET 0.000000 0.000000 0.000000
							CHANNELS 3 Xrotation Yrotation Zrotation
							JOINT Neck
							{
								OFFSET 0.000000 9.624100 -2.890100
								CHANNELS 3 Xrotation Yrotation Zrotation
								JOINT Head
								{
									OFFSET 0.000000 14.068802 -1.351900
									CHANNELS 3 Xrotation Yrotation Zrotation
									End Site
									{
										OFFSET 0 0 0
									}
								}
							}
						}
						JOINT LeftShoulder_virtual
						{
							OFFSET 0.000000 0.000000 0.000000
							CHANNELS 3 Xrotation Yrotation Zrotation
							JOINT LeftShoulder
							{
								OFFSET 15.263000 10.923401 -0.547700
								CHANNELS 3 Xrotation Yrotation Zrotation
								JOINT LeftArm
								{
									OFFSET 25.438599 -2.830597 -13.032500
									CHANNELS 3 Xrotation Yrotation Zrotation
									JOINT LeftForeArm
									{
										OFFSET 29.960503 0.000000 0.000000
										CHANNELS 3 Xrotation Yrotation Zrotation
										JOINT LeftHand
										{
											OFFSET 27.849251 0.000000 0.000000
											CHANNELS 3 Xrotation Yrotation Zrotation
											End Site
											{
												OFFSET 0 0 0
											}
										}
									}
								}
							}
						}
						JOINT RightShoulder_virtual
						{
							OFFSET 0.000000 0.000000 0.000000
							CHANNELS 3 Xrotation Yrotation Zrotation
							JOINT RightShoulder
							{
								OFFSET -15.263000 10.923401 -0.547700
								CHANNELS 3 Xrotation Yrotation Zrotation
								JOINT RightArm
								{
									OFFSET -25.438599 -2.830597 -13.032500
									CHANNELS 3 Xrotation Yrotation Zrotation
									JOINT RightForeArm
									{
										OFFSET -29.960503 0.000000 0.000000
										CHANNELS 3 Xrotation Yrotation Zrotation
										JOINT RightHand
										{
											OFFSET -27.849251 0.000000 0.000000
											CHANNELS 3 Xrotation Yrotation Zrotation
											End Site
											{
												OFFSET 0 0 0
											}
										}
									}
								}
							}
						}
					}
				}
			}
		}
	}
}
MOTION
Frames: 12
Frame Time: 0.03333333
-1.760632 82.839348 2.351221 0.000000 0.000000 0.000000 -0.227951 -43.813949 4.403403 -45.724254 -3.311556 19.264350 42.715849 -6.225383 -6.220637 -8.404550 -2.939817 -19.011903 0.000000 0.000000 0.000000 3.986759 -49.296955 -3.371082 -29.060898 -16.876264 -24.985768 44.160165 7.391177 -1.549259 -11.756798 3.938003 14.401006 0.000000 0.000000 0.000000 -0.355381 -27.354824 1.145009 2.450789 -31.961075 4.858066 13.777204 -1.671340 -5.058833 8.179751 0.536427 -4.136793 0.000000 0.000000 0.000000 3.215697 3.342617 -2.532258 -1.253576 3.477143 -0.230024 0.000000 0.000000 0.000000 3.385848 -0.494360 -3.469770 -1.945444 -7.985205 -9.502685 -17.924182 -0.332326 -40.346009 -2.711633 -35.023960 -1.345621 0.000000 0.000000 0.000000 3.807423 1.449198 -3.050736 0.374288 2.696760 -5.215713 -37.700407 -12.458729 38.952487 -65.446285 73.223767 60.185708 0.000000 0.000000 0.000000 
-1.691563 82.851379 2.393363 0.000000 0.000000 0.000000 -0.233341 -43.811057 4.407613 -45.705317 -3.321504 19.262385 42.693675 -6.211318 -6.282084 -8.390277 -2.892400 -19.119035 0.000000 0.000000 0.000000 4.140685 -49.237840 -3.296381 -28.893510 -16.894698 -24.949385 44.231834 7.478278 -1.569098 -11.718153 4.037362 14.423179 0.000000 0.000000 0.000000 -0.415174 -27.406981 1.199084 2.428510 -31.651558 4.917798 13.720710 -1.688096 -5.062110 8.219322 0.525281 -4.158222 0.000000 0.000000 0.000000 3.280541 3.297817 -2.578362 -1.266598 3.497689 -0.210512 0.000000 0.000000 0.000000 3.426880 -0.518710 -3.531379 -2.023772 -7.936002 -9.369743 -17.991541 -0.168786 -40.225525 -2.725811 -34.976774 -1.313598 0.000000 0.000000 0.000000 3.795243 1.487380 -3.060889 0.278230 2.565018 -5.151424 -37.639875 -12.808308 38.686929 -67.244210 73.250965 62.060786 0.000000 0.000000 0.000000 
-1.576331 82.875366 2.475368 0.000000 0.000000 0.000000 -0.245718 -43.797717 4.416449 -45.676904 -3.338579 19.262689 42.652841 -6.184994 -6.393132 -8.366656 -2.804767 -19.313463 0.000000 0.000000 0.000000 4.411606 -49.126518 -3.166115 -28.594684 -16.924999 -24.884409 44.350116 7.635468 -1.596269 -11.657127 4.211193 14.474342 0.000000 0.000000 0.000000 -0.528127 -27.548432 1.299737 2.400856 -31.043708 5.008221 13.609486 -1.710433 -5.058728 8.291810 0.503221 -4.194368 0.000000 0.000000 0.000000 3.396985 3.215519 -2.658904 -1.289063 3.532098 -0.170862 0.000000 0.000000 0.000000 3.506635 -0.565318 -3.644247 -2.161992 -7.842228 -9.110610 -18.129807 0.130251 -39.974321 -2.763620 -34.939693 -1.249999 0.000000 0.000000 0.000000 3.776939 1.558271 -3.078231 0.095083 2.326933 -5.032450 -37.575094 -13.468078 38.163221 -70.397722 73.240289 65.356263 0.000000 0.000000 0.000000 
-1.450303 82.911667 2.594095 0.000000 0.000000 0.000000 -0.269835 -43.761702 4.428113 -45.655559 -3.357764 19.270201 42.602543 -6.149752 -6.534257 -8.338887 -2.689453 -19.562753 0.000000 0.000000 0.000000 4.736968 -48.976404 -3.013966 -28.225507 -16.956276 -24.806110 44.474138 7.835050 -1.611539 -11.600268 4.419503 14.563828 0.000000 0.000000 0.000000 -0.679473 -27.829870 1.435669 2.391639 -30.160541 5.086166 13.450879 -1.723191 -5.034088 8.385830 0.470396 -4.234467 0.000000 0.000000 0.000000 3.543595 3.107176 -2.755398 -1.315416 3.569480 -0.111042 0.000000 0.000000 0.000000 3.620433 -0.631003 -3.790799 -2.330229 -7.711664 -8.743483 -18.338325 0.520057 -39.581175 -2.837255 -34.998070 -1.154775 0.000000 0.000000 0.000000 3.762522 1.651736 -3.097959 -0.158462 2.021100 -4.872908 -37.592248 -14.367484 37.400402 -74.178969 73.122769 69.321414 0.000000 0.000000 0.000000 
-1.345949 82.961281 2.747359 0.000000 0.000000 0.000000 -0.314812 -43.690958 4.435431 -45.660617 -3.372905 19.285789 42.559448 -6.109697 -6.684146 -8.306508 -2.561347 -19.831982 0.000000 0.000000 0.000000 5.046908 -48.805783 -2.880549 -27.854336 -16.976811 -24.736140 44.561237 8.047596 -1.597264 -11.574959 4.621358 14.697432 0.000000 0.000000 0.000000 -0.845572 -28.281385 1.596739 2.418770 -29.039970 5.114934 13.262343 -1.716800 -4.976735 8.488746 0.426645 -4.267792 0.000000 0.000000 0.000000 3.698379 2.983856 -2.849299 -1.340322 3.598464 -0.033070 0.000000 0.000000 0.000000 3.761800 -0.712813 -3.950964 -2.497301 -7.553168 -8.302525 -18.602831 0.952991 -39.045743 -2.952658 -35.224590 -1.026278 0.000000 0.000000 0.000000 3.762782 1.754586 -3.114868 -0.460143 1.683392 -4.684618 -37.768583 -15.416958 36.433445 -77.870543 72.883658 73.208747 0.000000 0.000000 0.000000 
-1.280225 83.025154 2.935365 0.000000 0.000000 0.000000 -0.392709 -43.578994 4.424946 -45.708565 -3.377974 19.303095 42.546071 -6.068447 -6.824448 -8.260646 -2.434583 -20.091577 0.000000 0.000000 0.000000 5.282719 -48.634765 -2.805250 -27.538201 -16.977364 -24.700046 44.579388 8.248974 -1.543977 -11.600552 4.786308 14.872831 0.000000 0.000000 0.000000 -0.997148 -28.886782 1.776736 2.487223 -27.741138 5.079255 13.072163 -1.692887 -4.884890 8.590507 0.371776 -4.287349 0.000000 0.000000 0.000000 3.845437 2.852810 -2.927047 -1.360139 3.610418 0.058493 0.000000 0.000000 0.000000 3.924031 -0.808741 -4.106468 -2.638894 -7.375377 -7.836513 -18.892472 1.385292 -38.385294 -3.103563 -35.650750 -0.860724 0.000000 0.000000 0.000000 3.786283 1.852892 -3.124318 -0.784721 1.337464 -4.472648 -38.141494 -16.518883 35.311760 -81.035898 72.569087 76.548908 0.000000 0.000000 0.000000 
-1.250414 83.102509 3.161638 0.000000 0.000000 0.000000 -0.513592 -43.429696 4.380529 -45.807514 -3.368703 19.309585 42.584887 -6.027936 -6.941908 -8.186673 -2.320284 -20.320441 0.000000 0.000000 0.000000 5.409631 -48.481233 -2.818672 -27.309847 -16.953238 -24.722720 44.513668 8.423061 -1.452341 -11.683340 4.898826 15.078986 0.000000 0.000000 0.000000 -1.107400 -29.581809 1.972206 2.591058 -26.347514 4.988492 12.914038 -1.662595 -4.768556 8.686095 0.306335 -4.291693 0.000000 0.000000 0.000000 3.978136 2.716747 -2.981625 -1.372995 3.601047 0.157441 0.000000 0.000000 0.000000 4.102029 -0.917231 -4.243387 -2.740829 -7.186320 -7.399696 -19.165197 1.775953 -37.633051 -3.271124 -36.262130 -0.652456 0.000000 0.000000 0.000000 3.837538 1.934781 -3.122522 -1.106863 0.996293 -4.235221 -38.700087 -17.575890 34.089235 -83.579932 72.252050 79.215919 0.000000 0.000000 0.000000 
-1.239099 83.189194 3.433581 0.000000 0.000000 0.000000 -0.679073 -43.259328 4.290419 -45.953274 -3.344223 19.291606 42.690175 -5.987954 -7.028238 -8.071095 -2.225528 -20.505155 0.000000 0.000000 0.000000 5.421523 -48.356769 -2.935983 -27.173887 -16.904816 -24.821915 44.365320 8.560808 -1.330596 -11.816756 4.956146 15.299390 0.000000 0.000000 0.000000 -1.161833 -30.276842 2.178336 2.720773 -24.960528 4.869878 12.817165 -1.639367 -4.646555 8.775422 0.232321 -4.284458 0.000000 0.000000 0.000000 4.098355 2.575580 -3.011295 -1.377823 3.570149 0.257620 0.000000 0.000000 0.000000 4.293001 -1.035755 -4.352851 -2.797963 -6.993501 -7.038390 -19.378606 2.083815 -36.830412 -3.428483 -37.013294 -0.395122 0.000000 0.000000 0.000000 3.916530 1.992966 -3.106576 -1.404134 0.670662 -3.966850 -39.399987 -18.498084 32.809374 -85.615096 71.999223 81.296853 0.000000 0.000000 0.000000 
-1.224687 83.277634 3.762407 0.000000 0.000000 0.000000 -0.877728 -43.094758 4.154072 -46.128594 -3.307968 19.240686 42.862128 -5.946597 -7.078956 -7.908359 -2.153428 -20.637796 0.000000 0.000000 0.000000 5.338708 -48.264989 -3.151713 -27.111346 -16.837308 -25.001757 44.146470 8.658171 -1.189889 -11.985654 4.963138 15.517283 0.000000 0.000000 0.000000 -1.164055 -30.890842 2.385197 2.869449 -23.682030 4.757778 12.797103 -1.631749 -4.539923 8.860872 0.153135 -4.272158 0.000000 0.000000 0.000000 4.213092 2.428776 -3.017513 -1.373428 3.520119 0.354366 0.000000 0.000000 0.000000 4.495026 -1.159719 -4.430773 -2.811866 -6.803369 -6.780362 -19.500878 2.270087 -36.018323 -3.548068 -37.848599 -0.083789 0.000000 0.000000 0.000000 4.019526 2.025935 -3.074540 -1.659810 0.376173 -3.661486 -40.188345 -19.211428 31.493627 -87.287775 71.855721 82.920245 0.000000 0.000000 0.000000 
-1.191411 83.358757 4.161352 0.000000 0.000000 0.000000 -1.085584 -42.966804 3.984079 -46.306282 -3.266721 19.157064 43.086233 -5.901117 -7.092238 -7.704049 -2.103672 -20.713903 0.000000 0.000000 0.000000 5.201135 -48.202749 -3.438177 -27.089008 -16.759985 -25.249299 43.874294 8.714880 -1.040209 -12.172073 4.927911 15.720449 0.000000 0.000000 0.000000 -1.132451 -31.375864 2.578218 3.034078 -22.594349 4.685303 12.852276 -1.640596 -4.465126 8.944300 0.072559 -4.261486 0.000000 0.000000 0.000000 4.330556 2.276568 -3.003438 -1.358332 3.454113 0.444937 0.000000 0.000000 0.000000 4.704300 -1.282644 -4.477268 -2.789181 -6.620420 -6.632049 -19.517218 2.306769 -35.230457 -3.608707 -38.716828 0.282734 0.000000 0.000000 0.000000 4.140582 2.037069 -3.025549 -1.864728 0.132881 -3.314134 -41.022707 -19.666444 30.139856 -88.673354 71.843536 84.151919 0.000000 0.000000 0.000000 
-1.134252 83.425385 4.641519 0.000000 0.000000 0.000000 -1.271691 -42.901026 3.802042 -46.455525 -3.227853 19.048889 43.338114 -5.848594 -7.068335 -7.473152 -2.073136 -20.731461 0.000000 0.000000 0.000000 5.058791 -48.163441 -3.749983 -27.069725 -16.684912 -25.536493 43.566679 8.734554 -0.888313 -12.360469 4.859663 15.903916 0.000000 0.000000 0.000000 -1.089549 -31.722496 2.743057 3.213929 -21.747133 4.679429 12.967134 -1.661767 -4.430033 9.025230 -0.006603 -4.257262 0.000000 0.000000 0.000000 4.457086 2.119538 -2.973338 -1.331396 3.374563 0.527984 0.000000 0.000000 0.000000 4.912955 -1.397649 -4.496011 -2.740650 -6.446297 -6.583880 -19.431962 2.185713 -34.489710 -3.600830 -39.577490 0.700262 0.000000 0.000000 0.000000 4.273129 2.032026 -2.959830 -2.017792 -0.041794 -2.921406 -41.876163 -19.843684 28.731819 -89.758166 71.965250 84.977040 0.000000 0.000000 0.000000 
-1.057413 83.475464 5.206098 0.000000 0.000000 0.000000 -1.406685 -42.909335 3.630460 -46.549457 -3.195926 18.927900 43.590759 -5.786257 -7.009581 -7.235461 -2.056323 -20.690716 0.000000 0.000000 0.000000 4.960211 -48.140560 -4.035272 -27.021593 -16.624597 -25.827851 43.239838 8.725293 -0.737575 -12.541196 4.768295 16.070259 0.000000 0.000000 0.000000 -1.049911 -31.946581 2.871868 3.408134 -21.156871 4.759026 13.119453 -1.691298 -4.433845 9.100826 -0.083542 -4.261562 0.000000 0.000000 0.000000 4.595667 1.957354 -2.932303 -1.292726 3.282433 0.602713 0.000000 0.000000 0.000000 5.109203 -1.499474 -4.493279 -2.679617 -6.280116 -6.619671 -19.265532 1.922526 -33.806513 -3.527936 -40.401122 1.159456 0.000000 0.000000 0.000000 4.411216 2.015742 -2.878512 -2.124652 -0.141406 -2.482268 -42.730831 -19.754107 27.253824 -90.471825 72.209853 85.332210 0.000000 0.000000 0.000000 
